<svg xmlns="http://www.w3.org/2000/svg" viewBox="0 0 480 480" fill="none" stroke="currentColor" stroke-width="1">
  <path d="M-130.0 -240.0 L-162.2 -207.8 L-162.2 -162.2 L-207.8 -162.2 L-240.0 -130.0 L-272.2 -162.2 L-317.8 -162.2 L-317.8 -207.8 L-350.0 -240.0 L-317.8 -272.2 L-317.8 -317.8 L-272.2 -317.8 L-240.0 -350.0 L-207.8 -317.8 L-162.2 -317.8 L-162.2 -272.2 Z"/>
  <path d="M-197.5 -222.4 L-222.4 -197.5 L-257.6 -197.5 L-282.5 -222.4 L-282.5 -257.6 L-257.6 -282.5 L-222.4 -282.5 L-197.5 -257.6 Z"/>
  <path d="M-130.0 0.0 L-162.2 32.2 L-162.2 77.8 L-207.8 77.8 L-240.0 110.0 L-272.2 77.8 L-317.8 77.8 L-317.8 32.2 L-350.0 0.0 L-317.8 -32.2 L-317.8 -77.8 L-272.2 -77.8 L-240.0 -110.0 L-207.8 -77.8 L-162.2 -77.8 L-162.2 -32.2 Z"/>
  <path d="M-197.5 17.6 L-222.4 42.5 L-257.6 42.5 L-282.5 17.6 L-282.5 -17.6 L-257.6 -42.5 L-222.4 -42.5 L-197.5 -17.6 Z"/>
  <path d="M-130.0 240.0 L-162.2 272.2 L-162.2 317.8 L-207.8 317.8 L-240.0 350.0 L-272.2 317.8 L-317.8 317.8 L-317.8 272.2 L-350.0 240.0 L-317.8 207.8 L-317.8 162.2 L-272.2 162.2 L-240.0 130.0 L-207.8 162.2 L-162.2 162.2 L-162.2 207.8 Z"/>
  <path d="M-197.5 257.6 L-222.4 282.5 L-257.6 282.5 L-282.5 257.6 L-282.5 222.4 L-257.6 197.5 L-222.4 197.5 L-197.5 222.4 Z"/>
  <path d="M-130.0 480.0 L-162.2 512.2 L-162.2 557.8 L-207.8 557.8 L-240.0 590.0 L-272.2 557.8 L-317.8 557.8 L-317.8 512.2 L-350.0 480.0 L-317.8 447.8 L-317.8 402.2 L-272.2 402.2 L-240.0 370.0 L-207.8 402.2 L-162.2 402.2 L-162.2 447.8 Z"/>
  <path d="M-197.5 497.6 L-222.4 522.5 L-257.6 522.5 L-282.5 497.6 L-282.5 462.4 L-257.6 437.5 L-222.4 437.5 L-197.5 462.4 Z"/>
  <path d="M-130.0 720.0 L-162.2 752.2 L-162.2 797.8 L-207.8 797.8 L-240.0 830.0 L-272.2 797.8 L-317.8 797.8 L-317.8 752.2 L-350.0 720.0 L-317.8 687.8 L-317.8 642.2 L-272.2 642.2 L-240.0 610.0 L-207.8 642.2 L-162.2 642.2 L-162.2 687.8 Z"/>
  <path d="M-197.5 737.6 L-222.4 762.5 L-257.6 762.5 L-282.5 737.6 L-282.5 702.4 L-257.6 677.5 L-222.4 677.5 L-197.5 702.4 Z"/>
  <path d="M110.0 -240.0 L77.8 -207.8 L77.8 -162.2 L32.2 -162.2 L0.0 -130.0 L-32.2 -162.2 L-77.8 -162.2 L-77.8 -207.8 L-110.0 -240.0 L-77.8 -272.2 L-77.8 -317.8 L-32.2 -317.8 L-0.0 -350.0 L32.2 -317.8 L77.8 -317.8 L77.8 -272.2 Z"/>
  <path d="M42.5 -222.4 L17.6 -197.5 L-17.6 -197.5 L-42.5 -222.4 L-42.5 -257.6 L-17.6 -282.5 L17.6 -282.5 L42.5 -257.6 Z"/>
  <path d="M110.0 0.0 L77.8 32.2 L77.8 77.8 L32.2 77.8 L0.0 110.0 L-32.2 77.8 L-77.8 77.8 L-77.8 32.2 L-110.0 0.0 L-77.8 -32.2 L-77.8 -77.8 L-32.2 -77.8 L-0.0 -110.0 L32.2 -77.8 L77.8 -77.8 L77.8 -32.2 Z"/>
  <path d="M42.5 17.6 L17.6 42.5 L-17.6 42.5 L-42.5 17.6 L-42.5 -17.6 L-17.6 -42.5 L17.6 -42.5 L42.5 -17.6 Z"/>
  <path d="M110.0 240.0 L77.8 272.2 L77.8 317.8 L32.2 317.8 L0.0 350.0 L-32.2 317.8 L-77.8 317.8 L-77.8 272.2 L-110.0 240.0 L-77.8 207.8 L-77.8 162.2 L-32.2 162.2 L-0.0 130.0 L32.2 162.2 L77.8 162.2 L77.8 207.8 Z"/>
  <path d="M42.5 257.6 L17.6 282.5 L-17.6 282.5 L-42.5 257.6 L-42.5 222.4 L-17.6 197.5 L17.6 197.5 L42.5 222.4 Z"/>
  <path d="M110.0 480.0 L77.8 512.2 L77.8 557.8 L32.2 557.8 L0.0 590.0 L-32.2 557.8 L-77.8 557.8 L-77.8 512.2 L-110.0 480.0 L-77.8 447.8 L-77.8 402.2 L-32.2 402.2 L-0.0 370.0 L32.2 402.2 L77.8 402.2 L77.8 447.8 Z"/>
  <path d="M42.5 497.6 L17.6 522.5 L-17.6 522.5 L-42.5 497.6 L-42.5 462.4 L-17.6 437.5 L17.6 437.5 L42.5 462.4 Z"/>
  <path d="M110.0 720.0 L77.8 752.2 L77.8 797.8 L32.2 797.8 L0.0 830.0 L-32.2 797.8 L-77.8 797.8 L-77.8 752.2 L-110.0 720.0 L-77.8 687.8 L-77.8 642.2 L-32.2 642.2 L-0.0 610.0 L32.2 642.2 L77.8 642.2 L77.8 687.8 Z"/>
  <path d="M42.5 737.6 L17.6 762.5 L-17.6 762.5 L-42.5 737.6 L-42.5 702.4 L-17.6 677.5 L17.6 677.5 L42.5 702.4 Z"/>
  <path d="M350.0 -240.0 L317.8 -207.8 L317.8 -162.2 L272.2 -162.2 L240.0 -130.0 L207.8 -162.2 L162.2 -162.2 L162.2 -207.8 L130.0 -240.0 L162.2 -272.2 L162.2 -317.8 L207.8 -317.8 L240.0 -350.0 L272.2 -317.8 L317.8 -317.8 L317.8 -272.2 Z"/>
  <path d="M282.5 -222.4 L257.6 -197.5 L222.4 -197.5 L197.5 -222.4 L197.5 -257.6 L222.4 -282.5 L257.6 -282.5 L282.5 -257.6 Z"/>
  <path d="M350.0 0.0 L317.8 32.2 L317.8 77.8 L272.2 77.8 L240.0 110.0 L207.8 77.8 L162.2 77.8 L162.2 32.2 L130.0 0.0 L162.2 -32.2 L162.2 -77.8 L207.8 -77.8 L240.0 -110.0 L272.2 -77.8 L317.8 -77.8 L317.8 -32.2 Z"/>
  <path d="M282.5 17.6 L257.6 42.5 L222.4 42.5 L197.5 17.6 L197.5 -17.6 L222.4 -42.5 L257.6 -42.5 L282.5 -17.6 Z"/>
  <path d="M350.0 240.0 L317.8 272.2 L317.8 317.8 L272.2 317.8 L240.0 350.0 L207.8 317.8 L162.2 317.8 L162.2 272.2 L130.0 240.0 L162.2 207.8 L162.2 162.2 L207.8 162.2 L240.0 130.0 L272.2 162.2 L317.8 162.2 L317.8 207.8 Z"/>
  <path d="M282.5 257.6 L257.6 282.5 L222.4 282.5 L197.5 257.6 L197.5 222.4 L222.4 197.5 L257.6 197.5 L282.5 222.4 Z"/>
  <path d="M350.0 480.0 L317.8 512.2 L317.8 557.8 L272.2 557.8 L240.0 590.0 L207.8 557.8 L162.2 557.8 L162.2 512.2 L130.0 480.0 L162.2 447.8 L162.2 402.2 L207.8 402.2 L240.0 370.0 L272.2 402.2 L317.8 402.2 L317.8 447.8 Z"/>
  <path d="M282.5 497.6 L257.6 522.5 L222.4 522.5 L197.5 497.6 L197.5 462.4 L222.4 437.5 L257.6 437.5 L282.5 462.4 Z"/>
  <path d="M350.0 720.0 L317.8 752.2 L317.8 797.8 L272.2 797.8 L240.0 830.0 L207.8 797.8 L162.2 797.8 L162.2 752.2 L130.0 720.0 L162.2 687.8 L162.2 642.2 L207.8 642.2 L240.0 610.0 L272.2 642.2 L317.8 642.2 L317.8 687.8 Z"/>
  <path d="M282.5 737.6 L257.6 762.5 L222.4 762.5 L197.5 737.6 L197.5 702.4 L222.4 677.5 L257.6 677.5 L282.5 702.4 Z"/>
  <path d="M590.0 -240.0 L557.8 -207.8 L557.8 -162.2 L512.2 -162.2 L480.0 -130.0 L447.8 -162.2 L402.2 -162.2 L402.2 -207.8 L370.0 -240.0 L402.2 -272.2 L402.2 -317.8 L447.8 -317.8 L480.0 -350.0 L512.2 -317.8 L557.8 -317.8 L557.8 -272.2 Z"/>
  <path d="M522.5 -222.4 L497.6 -197.5 L462.4 -197.5 L437.5 -222.4 L437.5 -257.6 L462.4 -282.5 L497.6 -282.5 L522.5 -257.6 Z"/>
  <path d="M590.0 0.0 L557.8 32.2 L557.8 77.8 L512.2 77.8 L480.0 110.0 L447.8 77.8 L402.2 77.8 L402.2 32.2 L370.0 0.0 L402.2 -32.2 L402.2 -77.8 L447.8 -77.8 L480.0 -110.0 L512.2 -77.8 L557.8 -77.8 L557.8 -32.2 Z"/>
  <path d="M522.5 17.6 L497.6 42.5 L462.4 42.5 L437.5 17.6 L437.5 -17.6 L462.4 -42.5 L497.6 -42.5 L522.5 -17.6 Z"/>
  <path d="M590.0 240.0 L557.8 272.2 L557.8 317.8 L512.2 317.8 L480.0 350.0 L447.8 317.8 L402.2 317.8 L402.2 272.2 L370.0 240.0 L402.2 207.8 L402.2 162.2 L447.8 162.2 L480.0 130.0 L512.2 162.2 L557.8 162.2 L557.8 207.8 Z"/>
  <path d="M522.5 257.6 L497.6 282.5 L462.4 282.5 L437.5 257.6 L437.5 222.4 L462.4 197.5 L497.6 197.5 L522.5 222.4 Z"/>
  <path d="M590.0 480.0 L557.8 512.2 L557.8 557.8 L512.2 557.8 L480.0 590.0 L447.8 557.8 L402.2 557.8 L402.2 512.2 L370.0 480.0 L402.2 447.8 L402.2 402.2 L447.8 402.2 L480.0 370.0 L512.2 402.2 L557.8 402.2 L557.8 447.8 Z"/>
  <path d="M522.5 497.6 L497.6 522.5 L462.4 522.5 L437.5 497.6 L437.5 462.4 L462.4 437.5 L497.6 437.5 L522.5 462.4 Z"/>
  <path d="M590.0 720.0 L557.8 752.2 L557.8 797.8 L512.2 797.8 L480.0 830.0 L447.8 797.8 L402.2 797.8 L402.2 752.2 L370.0 720.0 L402.2 687.8 L402.2 642.2 L447.8 642.2 L480.0 610.0 L512.2 642.2 L557.8 642.2 L557.8 687.8 Z"/>
  <path d="M522.5 737.6 L497.6 762.5 L462.4 762.5 L437.5 737.6 L437.5 702.4 L462.4 677.5 L497.6 677.5 L522.5 702.4 Z"/>
  <path d="M830.0 -240.0 L797.8 -207.8 L797.8 -162.2 L752.2 -162.2 L720.0 -130.0 L687.8 -162.2 L642.2 -162.2 L642.2 -207.8 L610.0 -240.0 L642.2 -272.2 L642.2 -317.8 L687.8 -317.8 L720.0 -350.0 L752.2 -317.8 L797.8 -317.8 L797.8 -272.2 Z"/>
  <path d="M762.5 -222.4 L737.6 -197.5 L702.4 -197.5 L677.5 -222.4 L677.5 -257.6 L702.4 -282.5 L737.6 -282.5 L762.5 -257.6 Z"/>
  <path d="M830.0 0.0 L797.8 32.2 L797.8 77.8 L752.2 77.8 L720.0 110.0 L687.8 77.8 L642.2 77.8 L642.2 32.2 L610.0 0.0 L642.2 -32.2 L642.2 -77.8 L687.8 -77.8 L720.0 -110.0 L752.2 -77.8 L797.8 -77.8 L797.8 -32.2 Z"/>
  <path d="M762.5 17.6 L737.6 42.5 L702.4 42.5 L677.5 17.6 L677.5 -17.6 L702.4 -42.5 L737.6 -42.5 L762.5 -17.6 Z"/>
  <path d="M830.0 240.0 L797.8 272.2 L797.8 317.8 L752.2 317.8 L720.0 350.0 L687.8 317.8 L642.2 317.8 L642.2 272.2 L610.0 240.0 L642.2 207.8 L642.2 162.2 L687.8 162.2 L720.0 130.0 L752.2 162.2 L797.8 162.2 L797.8 207.8 Z"/>
  <path d="M762.5 257.6 L737.6 282.5 L702.4 282.5 L677.5 257.6 L677.5 222.4 L702.4 197.5 L737.6 197.5 L762.5 222.4 Z"/>
  <path d="M830.0 480.0 L797.8 512.2 L797.8 557.8 L752.2 557.8 L720.0 590.0 L687.8 557.8 L642.2 557.8 L642.2 512.2 L610.0 480.0 L642.2 447.8 L642.2 402.2 L687.8 402.2 L720.0 370.0 L752.2 402.2 L797.8 402.2 L797.8 447.8 Z"/>
  <path d="M762.5 497.6 L737.6 522.5 L702.4 522.5 L677.5 497.6 L677.5 462.4 L702.4 437.5 L737.6 437.5 L762.5 462.4 Z"/>
  <path d="M830.0 720.0 L797.8 752.2 L797.8 797.8 L752.2 797.8 L720.0 830.0 L687.8 797.8 L642.2 797.8 L642.2 752.2 L610.0 720.0 L642.2 687.8 L642.2 642.2 L687.8 642.2 L720.0 610.0 L752.2 642.2 L797.8 642.2 L797.8 687.8 Z"/>
  <path d="M762.5 737.6 L737.6 762.5 L702.4 762.5 L677.5 737.6 L677.5 702.4 L702.4 677.5 L737.6 677.5 L762.5 702.4 Z"/>
  <path d="M-144.0 -144.0 L-96.0 -144.0 L-96.0 -96.0 L-144.0 -96.0 Z"/>
  <path d="M-144.0 96.0 L-96.0 96.0 L-96.0 144.0 L-144.0 144.0 Z"/>
  <path d="M-144.0 336.0 L-96.0 336.0 L-96.0 384.0 L-144.0 384.0 Z"/>
  <path d="M-144.0 576.0 L-96.0 576.0 L-96.0 624.0 L-144.0 624.0 Z"/>
  <path d="M96.0 -144.0 L144.0 -144.0 L144.0 -96.0 L96.0 -96.0 Z"/>
  <path d="M96.0 96.0 L144.0 96.0 L144.0 144.0 L96.0 144.0 Z"/>
  <path d="M96.0 336.0 L144.0 336.0 L144.0 384.0 L96.0 384.0 Z"/>
  <path d="M96.0 576.0 L144.0 576.0 L144.0 624.0 L96.0 624.0 Z"/>
  <path d="M336.0 -144.0 L384.0 -144.0 L384.0 -96.0 L336.0 -96.0 Z"/>
  <path d="M336.0 96.0 L384.0 96.0 L384.0 144.0 L336.0 144.0 Z"/>
  <path d="M336.0 336.0 L384.0 336.0 L384.0 384.0 L336.0 384.0 Z"/>
  <path d="M336.0 576.0 L384.0 576.0 L384.0 624.0 L336.0 624.0 Z"/>
  <path d="M576.0 -144.0 L624.0 -144.0 L624.0 -96.0 L576.0 -96.0 Z"/>
  <path d="M576.0 96.0 L624.0 96.0 L624.0 144.0 L576.0 144.0 Z"/>
  <path d="M576.0 336.0 L624.0 336.0 L624.0 384.0 L576.0 384.0 Z"/>
  <path d="M576.0 576.0 L624.0 576.0 L624.0 624.0 L576.0 624.0 Z"/>
  <path d="M-130.0 -240.0 L-110.0 -240.0"/>
  <path d="M-240.0 -130.0 L-240.0 -110.0"/>
  <path d="M-130.0 0.0 L-110.0 0.0"/>
  <path d="M-240.0 110.0 L-240.0 130.0"/>
  <path d="M-130.0 240.0 L-110.0 240.0"/>
  <path d="M-240.0 350.0 L-240.0 370.0"/>
  <path d="M-130.0 480.0 L-110.0 480.0"/>
  <path d="M-240.0 590.0 L-240.0 610.0"/>
  <path d="M-130.0 720.0 L-110.0 720.0"/>
  <path d="M-240.0 830.0 L-240.0 850.0"/>
  <path d="M110.0 -240.0 L130.0 -240.0"/>
  <path d="M0.0 -130.0 L0.0 -110.0"/>
  <path d="M110.0 0.0 L130.0 0.0"/>
  <path d="M0.0 110.0 L0.0 130.0"/>
  <path d="M110.0 240.0 L130.0 240.0"/>
  <path d="M0.0 350.0 L0.0 370.0"/>
  <path d="M110.0 480.0 L130.0 480.0"/>
  <path d="M0.0 590.0 L0.0 610.0"/>
  <path d="M110.0 720.0 L130.0 720.0"/>
  <path d="M0.0 830.0 L0.0 850.0"/>
  <path d="M350.0 -240.0 L370.0 -240.0"/>
  <path d="M240.0 -130.0 L240.0 -110.0"/>
  <path d="M350.0 0.0 L370.0 0.0"/>
  <path d="M240.0 110.0 L240.0 130.0"/>
  <path d="M350.0 240.0 L370.0 240.0"/>
  <path d="M240.0 350.0 L240.0 370.0"/>
  <path d="M350.0 480.0 L370.0 480.0"/>
  <path d="M240.0 590.0 L240.0 610.0"/>
  <path d="M350.0 720.0 L370.0 720.0"/>
  <path d="M240.0 830.0 L240.0 850.0"/>
  <path d="M590.0 -240.0 L610.0 -240.0"/>
  <path d="M480.0 -130.0 L480.0 -110.0"/>
  <path d="M590.0 0.0 L610.0 0.0"/>
  <path d="M480.0 110.0 L480.0 130.0"/>
  <path d="M590.0 240.0 L610.0 240.0"/>
  <path d="M480.0 350.0 L480.0 370.0"/>
  <path d="M590.0 480.0 L610.0 480.0"/>
  <path d="M480.0 590.0 L480.0 610.0"/>
  <path d="M590.0 720.0 L610.0 720.0"/>
  <path d="M480.0 830.0 L480.0 850.0"/>
  <path d="M830.0 -240.0 L850.0 -240.0"/>
  <path d="M720.0 -130.0 L720.0 -110.0"/>
  <path d="M830.0 0.0 L850.0 0.0"/>
  <path d="M720.0 110.0 L720.0 130.0"/>
  <path d="M830.0 240.0 L850.0 240.0"/>
  <path d="M720.0 350.0 L720.0 370.0"/>
  <path d="M830.0 480.0 L850.0 480.0"/>
  <path d="M720.0 590.0 L720.0 610.0"/>
  <path d="M830.0 720.0 L850.0 720.0"/>
  <path d="M720.0 830.0 L720.0 850.0"/>
  <path d="M-96.0 -96.0 L-77.8 -77.8"/>
  <path d="M-96.0 -144.0 L-77.8 -162.2"/>
  <path d="M-144.0 -96.0 L-162.2 -77.8"/>
  <path d="M-144.0 -144.0 L-162.2 -162.2"/>
  <path d="M-96.0 144.0 L-77.8 162.2"/>
  <path d="M-96.0 96.0 L-77.8 77.8"/>
  <path d="M-144.0 144.0 L-162.2 162.2"/>
  <path d="M-144.0 96.0 L-162.2 77.8"/>
  <path d="M-96.0 384.0 L-77.8 402.2"/>
  <path d="M-96.0 336.0 L-77.8 317.8"/>
  <path d="M-144.0 384.0 L-162.2 402.2"/>
  <path d="M-144.0 336.0 L-162.2 317.8"/>
  <path d="M-96.0 624.0 L-77.8 642.2"/>
  <path d="M-96.0 576.0 L-77.8 557.8"/>
  <path d="M-144.0 624.0 L-162.2 642.2"/>
  <path d="M-144.0 576.0 L-162.2 557.8"/>
  <path d="M144.0 -96.0 L162.2 -77.8"/>
  <path d="M144.0 -144.0 L162.2 -162.2"/>
  <path d="M96.0 -96.0 L77.8 -77.8"/>
  <path d="M96.0 -144.0 L77.8 -162.2"/>
  <path d="M144.0 144.0 L162.2 162.2"/>
  <path d="M144.0 96.0 L162.2 77.8"/>
  <path d="M96.0 144.0 L77.8 162.2"/>
  <path d="M96.0 96.0 L77.8 77.8"/>
  <path d="M144.0 384.0 L162.2 402.2"/>
  <path d="M144.0 336.0 L162.2 317.8"/>
  <path d="M96.0 384.0 L77.8 402.2"/>
  <path d="M96.0 336.0 L77.8 317.8"/>
  <path d="M144.0 624.0 L162.2 642.2"/>
  <path d="M144.0 576.0 L162.2 557.8"/>
  <path d="M96.0 624.0 L77.8 642.2"/>
  <path d="M96.0 576.0 L77.8 557.8"/>
  <path d="M384.0 -96.0 L402.2 -77.8"/>
  <path d="M384.0 -144.0 L402.2 -162.2"/>
  <path d="M336.0 -96.0 L317.8 -77.8"/>
  <path d="M336.0 -144.0 L317.8 -162.2"/>
  <path d="M384.0 144.0 L402.2 162.2"/>
  <path d="M384.0 96.0 L402.2 77.8"/>
  <path d="M336.0 144.0 L317.8 162.2"/>
  <path d="M336.0 96.0 L317.8 77.8"/>
  <path d="M384.0 384.0 L402.2 402.2"/>
  <path d="M384.0 336.0 L402.2 317.8"/>
  <path d="M336.0 384.0 L317.8 402.2"/>
  <path d="M336.0 336.0 L317.8 317.8"/>
  <path d="M384.0 624.0 L402.2 642.2"/>
  <path d="M384.0 576.0 L402.2 557.8"/>
  <path d="M336.0 624.0 L317.8 642.2"/>
  <path d="M336.0 576.0 L317.8 557.8"/>
  <path d="M624.0 -96.0 L642.2 -77.8"/>
  <path d="M624.0 -144.0 L642.2 -162.2"/>
  <path d="M576.0 -96.0 L557.8 -77.8"/>
  <path d="M576.0 -144.0 L557.8 -162.2"/>
  <path d="M624.0 144.0 L642.2 162.2"/>
  <path d="M624.0 96.0 L642.2 77.8"/>
  <path d="M576.0 144.0 L557.8 77.8"/>
  <path d="M576.0 96.0 L557.8 77.8"/>
  <path d="M624.0 384.0 L642.2 402.2"/>
  <path d="M624.0 336.0 L642.2 317.8"/>
  <path d="M576.0 384.0 L557.8 317.8"/>
  <path d="M576.0 336.0 L557.8 317.8"/>
  <path d="M624.0 624.0 L642.2 642.2"/>
  <path d="M624.0 576.0 L642.2 557.8"/>
  <path d="M576.0 624.0 L557.8 642.2"/>
  <path d="M576.0 576.0 L557.8 557.8"/>
</svg>
